<svg width="234" height="45" viewBox="0 0 234 45" fill="none" xmlns="http://www.w3.org/2000/svg">
<path d="M84.519 9.17299H81.043V37.489H99.237V34.186H84.519V9.17299Z" fill="#2D2D2D"/>
<path d="M109.916 15.437C105.963 15.437 99.334 16.891 99.334 26.631C99.334 36.371 105.963 37.825 109.916 37.825C113.869 37.825 120.498 36.371 120.498 26.631C120.498 16.891 113.87 15.437 109.916 15.437ZM109.916 34.606C105.067 34.606 102.809 32.072 102.809 26.63C102.809 21.188 105.067 18.654 109.916 18.654C114.765 18.654 117.025 21.188 117.025 26.63C117.025 32.072 114.767 34.606 109.916 34.606Z" fill="#2D2D2D"/>
<path d="M130.165 15.479C127.331 15.479 124.958 16.107 123.796 16.479L123.339 16.626V19.971L124.201 19.72C124.96 19.498 127.269 18.824 130.034 18.824C134.115 18.824 136.085 20.38 136.331 23.843C135.443 23.708 134.044 23.552 131.957 23.552C129.423 23.552 121.156 24.074 121.156 30.794C121.156 35.948 126.058 37.785 130.647 37.785C132.811 37.785 139.875 37.287 139.875 30.878V24.655C139.875 18.566 136.608 15.479 130.165 15.479ZM130.647 34.606C128.399 34.606 124.631 34.11 124.631 30.793C124.631 27.163 129.57 26.769 131.695 26.769C133.9 26.769 135.52 26.942 136.4 27.058V30.877C136.398 33.96 133.271 34.606 130.647 34.606Z" fill="#2D2D2D"/>
<path d="M151.387 15.437C146.785 15.437 143.031 17.168 141.99 17.699L141.635 17.88V37.491H145.11V19.929C147.189 19.195 149.225 18.824 151.169 18.824C156.114 18.824 156.748 21.357 156.748 23.563V37.49H160.266V23.563C160.265 18.323 157.112 15.437 151.387 15.437Z" fill="#2D2D2D"/>
<path d="M178.82 9.17299H154.904V12.475H165.124V37.489H168.643V12.475H178.82V9.17299Z" fill="#2D2D2D"/>
<path d="M188.167 28.524C188.167 32.618 186.213 34.607 182.194 34.607C178.12 34.607 176.223 32.675 176.223 28.524V15.816H172.705V28.397C172.705 34.363 176.164 37.785 182.194 37.785C188.226 37.785 191.683 34.363 191.683 28.397V15.816H188.165V28.523L188.167 28.524Z" fill="#2D2D2D"/>
<path d="M202.481 15.437C200.713 15.437 198.858 15.704 197.163 16.198V7.911H193.645V30.836C193.645 32.004 194.086 37.827 202.786 37.827C206.558 37.827 212.887 36.351 212.887 26.465C212.888 17.35 207.229 15.437 202.481 15.437ZM202.787 34.606C199.214 34.606 197.164 33.262 197.164 30.919V19.623C198.784 19.026 200.655 18.698 202.482 18.698C207.311 18.698 209.37 21.02 209.37 26.463C209.37 33.763 205.612 34.606 202.787 34.606Z" fill="#2D2D2D"/>
<path d="M223.858 15.479C214.484 15.479 213.756 24.337 213.756 27.051C213.756 36.388 220.468 37.783 224.469 37.783C227.173 37.783 229.923 37.273 231.826 36.42L232.212 36.247V32.606L231.222 33.129C229.625 33.975 227.166 34.48 224.643 34.48C218.648 34.48 217.453 28.832 217.394 28.491H232.942L233.606 28.541V27.898C233.618 27.816 233.652 27.578 233.652 26.756C233.654 24.112 232.947 15.479 223.858 15.479ZM217.36 25.358C217.737 20.965 219.876 18.738 223.724 18.738C229.042 18.738 229.926 23.398 230.065 25.358H217.36Z" fill="#2D2D2D"/>
<path d="M44.2054 28.931C43.6864 30.562 42.9864 32.136 42.0894 33.587C40.3574 36.487 37.9144 38.996 34.9474 40.836C34.0764 41.39 33.1564 41.881 32.1844 42.312C19.2364 48.064 3.60639 40.277 0.991389 26.783C-1.73961 12.567 11.3774 -0.711004 26.3284 1.678C23.3614 3.52 20.8864 6.027 19.1224 8.976C14.0834 10.248 9.78739 13.99 8.39339 19.45C6.90939 25.288 9.47339 31.576 14.7164 34.863C23.3764 40.28 34.5994 35.573 37.2254 26.766C37.6504 25.34 39.0674 24.382 40.6204 24.348C43.1184 24.296 44.9214 26.619 44.2054 28.931Z" fill="#C60029"/>
<path d="M20.2514 16.069C20.7704 14.438 21.4704 12.864 22.3674 11.413C24.0994 8.513 26.5424 6.004 29.5094 4.164C30.3804 3.61 31.3004 3.119 32.2724 2.688C45.2214 -3.065 60.8504 4.723 63.4654 18.217C66.1964 32.433 53.0784 45.711 38.1284 43.322C41.0954 41.48 43.5704 38.973 45.3344 36.024C50.3734 34.752 54.6694 31.01 56.0634 25.55C57.5474 19.712 54.9834 13.424 49.7404 10.137C41.0804 4.72 29.8574 9.427 27.2314 18.234C26.8064 19.66 25.3894 20.618 23.8364 20.652C21.3384 20.704 19.5374 18.381 20.2514 16.069Z" fill="#C60029"/>
</svg>
