<?xml version="1.0" encoding="UTF-8" standalone="no"?>
<!DOCTYPE svg PUBLIC "-//W3C//DTD SVG 20010904//EN" "http://www.w3.org/TR/2001/REC-SVG-20010904/DTD/svg10.dtd">
<svg version="1.0" xmlns="http://www.w3.org/2000/svg" width="250.000000pt" height="245.000000pt" viewBox="0 0 367.000000 245.000000" preserveAspectRatio="xMidYMid meet">
<metadata>
Created by potrace 1.16, written by Peter Selinger 2001-2019
</metadata>
<g transform="translate(0.000000,245.000000) scale(0.100000,-0.100000)" fill="#c60029" stroke="none">
<path d="M2028 2394 c-426 -77 -771 -365 -924 -772 -31 -80 -31 -136 -1 -193 86 -162 324 -136 382 42 90 274 338 481 640 534 102 18 165 19 255 5 406 -64 700 -416 677 -810 -17 -292 -207 -551 -490 -668 -42 -18 -82 -32 -90 -32 -9 0 -40 -35 -70 -77 -68 -98 -169 -199 -270 -275 -77 -57 -77 -58 -50 -65 54 -15 314 -8 400 10 572 121 983 605 983 1157 0 305 -116 577 -340 800 -236 235 -553 361 -900 359 -69 0 -159 -7 -202 -15z"/>
<path d="M1110 2374 c-349 -43 -659 -222 -865 -499 -58 -79 -136 -231 -169 -330 -64 -192 -72 -423 -22 -620 53 -207 195 -436 353 -571 247 -209 527 -314 844 -314 437 0 830 225 1050 601 57 98 102 216 106 279 10 139 -122 239 -264 200 -65 -19 -108 -67 -147 -167 -45 -113 -90 -184 -166 -263 -209 -216 -529 -307 -810 -230 -364 101 -613 437 -587 795 8 111 29 185 83 293 90 180 264 327 457 388 54 17 61 23 116 98 70 96 203 228 284 281 32 21 54 42 49 47 -9 9 -257 19 -312 12z"/>
</g>
</svg>